<svg xmlns="http://www.w3.org/2000/svg" viewBox="0 0 1200 900" role="img" aria-labelledby="title desc">
  <title id="title">BASELINE set 02 — stencil ruler logo</title>
  <desc id="desc">A dark monochrome geometric BASELINE logo using a segmented stencil terminal font, paired guardrail rails, ruler ticks, schema registration nodes, and a strict baseline.</desc>
  <rect x="0" y="0" width="1200" height="900" fill="#000000"/>
  <rect x="72" y="64" width="1056" height="780" fill="#070707" stroke="#262626" stroke-width="3"/>
  <line x1="120" y1="132" x2="1080" y2="132" stroke="#3A3A3A" stroke-width="3" stroke-linecap="square"/>
  <line x1="120" y1="132" x2="120" y2="428" stroke="#3A3A3A" stroke-width="3" stroke-linecap="square"/>
  <line x1="1080" y1="132" x2="1080" y2="428" stroke="#3A3A3A" stroke-width="3" stroke-linecap="square"/>
  <line x1="188" y1="198" x2="422" y2="198" stroke="#565656" stroke-width="4" stroke-linecap="square"/>
  <line x1="778" y1="198" x2="1012" y2="198" stroke="#565656" stroke-width="4" stroke-linecap="square"/>
  <line x1="188" y1="362" x2="422" y2="362" stroke="#565656" stroke-width="4" stroke-linecap="square"/>
  <line x1="778" y1="362" x2="1012" y2="362" stroke="#565656" stroke-width="4" stroke-linecap="square"/>
  <rect x="108" y="120" width="24" height="24" fill="#000000" stroke="#8A8A8A" stroke-width="3"/>
  <rect x="1068" y="120" width="24" height="24" fill="#000000" stroke="#8A8A8A" stroke-width="3"/>
  <rect x="176" y="186" width="24" height="24" fill="#000000" stroke="#8A8A8A" stroke-width="3"/>
  <rect x="1000" y="186" width="24" height="24" fill="#000000" stroke="#8A8A8A" stroke-width="3"/>
  <rect x="176" y="350" width="24" height="24" fill="#000000" stroke="#8A8A8A" stroke-width="3"/>
  <rect x="1000" y="350" width="24" height="24" fill="#000000" stroke="#8A8A8A" stroke-width="3"/>
  <rect x="410" y="186" width="24" height="24" fill="#000000" stroke="#8A8A8A" stroke-width="3"/>
  <rect x="766" y="186" width="24" height="24" fill="#000000" stroke="#8A8A8A" stroke-width="3"/>
  <rect x="410" y="350" width="24" height="24" fill="#000000" stroke="#8A8A8A" stroke-width="3"/>
  <rect x="766" y="350" width="24" height="24" fill="#000000" stroke="#8A8A8A" stroke-width="3"/>
  <rect x="442" y="82" width="316" height="420" fill="#0E0E0E" stroke="#5A5A5A" stroke-width="5" rx="42"/>
  <rect x="333" y="273" width="218" height="98" fill="#111111" stroke="#7E7E7E" stroke-width="4"/>
  <rect x="551" y="305" width="82" height="34" fill="#0B0B0B" stroke="#7E7E7E" stroke-width="4"/>
  <rect x="633" y="264" width="206" height="118" fill="#111111" stroke="#7E7E7E" stroke-width="4"/>
  <line x1="348" y1="350" x2="505" y2="274" stroke="#E6E6E6" stroke-width="4" stroke-linecap="square"/>
  <circle cx="368" cy="294" r="16" fill="#000000" stroke="#E6E6E6" stroke-width="3"/>
  <circle cx="498" cy="324" r="20" fill="#000000" stroke="#E6E6E6" stroke-width="3"/>
  <circle cx="368" cy="348" r="10" fill="#000000" stroke="#E6E6E6" stroke-width="3"/>
  <rect x="574" y="132" width="74" height="370" fill="#E9E9E9" stroke="#767676" stroke-width="5"/>
  <rect x="600" y="160" width="22" height="312" fill="#000000"/>
  <line x1="676" y1="295" x2="734" y2="295" stroke="#F0F0F0" stroke-width="3" stroke-linecap="square"/>
  <line x1="676" y1="323" x2="734" y2="323" stroke="#F0F0F0" stroke-width="5" stroke-linecap="square"/>
  <line x1="676" y1="351" x2="734" y2="351" stroke="#F0F0F0" stroke-width="5" stroke-linecap="square"/>
  <line x1="140" y1="532" x2="1060" y2="532" stroke="#EFEFEF" stroke-width="4" stroke-linecap="square"/>
  <line x1="140" y1="712" x2="1060" y2="712" stroke="#686868" stroke-width="4" stroke-linecap="square"/>
  <line x1="140" y1="532" x2="140" y2="712" stroke="#EFEFEF" stroke-width="5" stroke-linecap="square"/>
  <line x1="1060" y1="532" x2="1060" y2="712" stroke="#EFEFEF" stroke-width="5" stroke-linecap="square"/>
  <rect x="128" y="520" width="28" height="28" fill="#000000" stroke="#EFEFEF" stroke-width="4"/>
  <rect x="1044" y="520" width="28" height="28" fill="#000000" stroke="#EFEFEF" stroke-width="4"/>
  <rect x="128" y="696" width="28" height="28" fill="#000000" stroke="#686868" stroke-width="4"/>
  <rect x="1044" y="696" width="28" height="28" fill="#000000" stroke="#686868" stroke-width="4"/>
  <g id="wordmark-stencil" fill="none" stroke="#F4F4F4" stroke-width="13" stroke-linecap="square" stroke-linejoin="miter">
    <line x1="195" y1="574" x2="255" y2="574"/>
    <line x1="195" y1="626.0" x2="255" y2="626.0"/>
    <line x1="195" y1="678" x2="255" y2="678"/>
    <line x1="195" y1="574" x2="195" y2="614.0"/>
    <line x1="195" y1="638.0" x2="195" y2="678"/>
    <line x1="255" y1="574" x2="255" y2="614.0"/>
    <line x1="255" y1="638.0" x2="255" y2="678"/>
    <line x1="301" y1="574" x2="361" y2="574"/>
    <line x1="301" y1="626.0" x2="361" y2="626.0"/>
    <line x1="301" y1="574" x2="301" y2="614.0"/>
    <line x1="301" y1="638.0" x2="301" y2="678"/>
    <line x1="361" y1="574" x2="361" y2="614.0"/>
    <line x1="361" y1="638.0" x2="361" y2="678"/>
    <line x1="407" y1="574" x2="467" y2="574"/>
    <line x1="407" y1="626.0" x2="467" y2="626.0"/>
    <line x1="407" y1="678" x2="467" y2="678"/>
    <line x1="407" y1="574" x2="407" y2="614.0"/>
    <line x1="467" y1="638.0" x2="467" y2="678"/>
    <line x1="513" y1="574" x2="573" y2="574"/>
    <line x1="513" y1="626.0" x2="573" y2="626.0"/>
    <line x1="513" y1="678" x2="573" y2="678"/>
    <line x1="513" y1="574" x2="513" y2="614.0"/>
    <line x1="513" y1="638.0" x2="513" y2="678"/>
    <line x1="619" y1="678" x2="679" y2="678"/>
    <line x1="619" y1="574" x2="619" y2="614.0"/>
    <line x1="619" y1="638.0" x2="619" y2="678"/>
    <line x1="725" y1="574" x2="785" y2="574"/>
    <line x1="725" y1="678" x2="785" y2="678"/>
    <line x1="755.0" y1="576" x2="755.0" y2="676"/>
    <line x1="831" y1="574" x2="831" y2="614.0"/>
    <line x1="831" y1="638.0" x2="831" y2="678"/>
    <line x1="891" y1="574" x2="891" y2="614.0"/>
    <line x1="891" y1="638.0" x2="891" y2="678"/>
    <line x1="831" y1="574" x2="891" y2="678"/>
    <line x1="937" y1="574" x2="997" y2="574"/>
    <line x1="937" y1="626.0" x2="997" y2="626.0"/>
    <line x1="937" y1="678" x2="997" y2="678"/>
    <line x1="937" y1="574" x2="937" y2="614.0"/>
    <line x1="937" y1="638.0" x2="937" y2="678"/>
  </g>
  <line x1="138" y1="742" x2="1062" y2="742" stroke="#F4F4F4" stroke-width="8" stroke-linecap="square"/>
  <line x1="138" y1="784" x2="1062" y2="784" stroke="#777777" stroke-width="3" stroke-linecap="square"/>
  <line x1="138" y1="784" x2="138" y2="750" stroke="#F1F1F1" stroke-width="4" stroke-linecap="square"/>
  <line x1="162" y1="784" x2="162" y2="767" stroke="#3E3E3E" stroke-width="2" stroke-linecap="square"/>
  <line x1="186" y1="784" x2="186" y2="767" stroke="#3E3E3E" stroke-width="2" stroke-linecap="square"/>
  <line x1="210" y1="784" x2="210" y2="767" stroke="#3E3E3E" stroke-width="2" stroke-linecap="square"/>
  <line x1="234" y1="784" x2="234" y2="767" stroke="#3E3E3E" stroke-width="2" stroke-linecap="square"/>
  <line x1="258" y1="784" x2="258" y2="750" stroke="#F1F1F1" stroke-width="4" stroke-linecap="square"/>
  <line x1="282" y1="784" x2="282" y2="767" stroke="#3E3E3E" stroke-width="2" stroke-linecap="square"/>
  <line x1="306" y1="784" x2="306" y2="767" stroke="#3E3E3E" stroke-width="2" stroke-linecap="square"/>
  <line x1="330" y1="784" x2="330" y2="767" stroke="#3E3E3E" stroke-width="2" stroke-linecap="square"/>
  <line x1="354" y1="784" x2="354" y2="767" stroke="#3E3E3E" stroke-width="2" stroke-linecap="square"/>
  <line x1="378" y1="784" x2="378" y2="750" stroke="#F1F1F1" stroke-width="4" stroke-linecap="square"/>
  <line x1="402" y1="784" x2="402" y2="767" stroke="#3E3E3E" stroke-width="2" stroke-linecap="square"/>
  <line x1="426" y1="784" x2="426" y2="767" stroke="#3E3E3E" stroke-width="2" stroke-linecap="square"/>
  <line x1="450" y1="784" x2="450" y2="767" stroke="#3E3E3E" stroke-width="2" stroke-linecap="square"/>
  <line x1="474" y1="784" x2="474" y2="767" stroke="#3E3E3E" stroke-width="2" stroke-linecap="square"/>
  <line x1="498" y1="784" x2="498" y2="750" stroke="#F1F1F1" stroke-width="4" stroke-linecap="square"/>
  <line x1="522" y1="784" x2="522" y2="767" stroke="#3E3E3E" stroke-width="2" stroke-linecap="square"/>
  <line x1="546" y1="784" x2="546" y2="767" stroke="#3E3E3E" stroke-width="2" stroke-linecap="square"/>
  <line x1="570" y1="784" x2="570" y2="767" stroke="#3E3E3E" stroke-width="2" stroke-linecap="square"/>
  <line x1="594" y1="784" x2="594" y2="767" stroke="#3E3E3E" stroke-width="2" stroke-linecap="square"/>
  <line x1="618" y1="784" x2="618" y2="750" stroke="#F1F1F1" stroke-width="4" stroke-linecap="square"/>
  <line x1="642" y1="784" x2="642" y2="767" stroke="#3E3E3E" stroke-width="2" stroke-linecap="square"/>
  <line x1="666" y1="784" x2="666" y2="767" stroke="#3E3E3E" stroke-width="2" stroke-linecap="square"/>
  <line x1="690" y1="784" x2="690" y2="767" stroke="#3E3E3E" stroke-width="2" stroke-linecap="square"/>
  <line x1="714" y1="784" x2="714" y2="767" stroke="#3E3E3E" stroke-width="2" stroke-linecap="square"/>
  <line x1="738" y1="784" x2="738" y2="750" stroke="#F1F1F1" stroke-width="4" stroke-linecap="square"/>
  <line x1="762" y1="784" x2="762" y2="767" stroke="#3E3E3E" stroke-width="2" stroke-linecap="square"/>
  <line x1="786" y1="784" x2="786" y2="767" stroke="#3E3E3E" stroke-width="2" stroke-linecap="square"/>
  <line x1="810" y1="784" x2="810" y2="767" stroke="#3E3E3E" stroke-width="2" stroke-linecap="square"/>
  <line x1="834" y1="784" x2="834" y2="767" stroke="#3E3E3E" stroke-width="2" stroke-linecap="square"/>
  <line x1="858" y1="784" x2="858" y2="750" stroke="#F1F1F1" stroke-width="4" stroke-linecap="square"/>
  <line x1="882" y1="784" x2="882" y2="767" stroke="#3E3E3E" stroke-width="2" stroke-linecap="square"/>
  <line x1="906" y1="784" x2="906" y2="767" stroke="#3E3E3E" stroke-width="2" stroke-linecap="square"/>
  <line x1="930" y1="784" x2="930" y2="767" stroke="#3E3E3E" stroke-width="2" stroke-linecap="square"/>
  <line x1="954" y1="784" x2="954" y2="767" stroke="#3E3E3E" stroke-width="2" stroke-linecap="square"/>
  <line x1="978" y1="784" x2="978" y2="750" stroke="#F1F1F1" stroke-width="4" stroke-linecap="square"/>
  <line x1="1002" y1="784" x2="1002" y2="767" stroke="#3E3E3E" stroke-width="2" stroke-linecap="square"/>
  <line x1="1026" y1="784" x2="1026" y2="767" stroke="#3E3E3E" stroke-width="2" stroke-linecap="square"/>
  <line x1="1050" y1="784" x2="1050" y2="767" stroke="#3E3E3E" stroke-width="2" stroke-linecap="square"/>
  <rect x="138" y="730" width="22" height="26" fill="#F4F4F4"/>
  <rect x="1040" y="730" width="22" height="26" fill="#F4F4F4"/>
  <line x1="300" y1="532" x2="300" y2="712" stroke="#292929" stroke-width="2" stroke-linecap="square" stroke-dasharray="8 12"/>
  <line x1="600" y1="532" x2="600" y2="712" stroke="#292929" stroke-width="2" stroke-linecap="square" stroke-dasharray="8 12"/>
  <line x1="900" y1="532" x2="900" y2="712" stroke="#292929" stroke-width="2" stroke-linecap="square" stroke-dasharray="8 12"/>
</svg>